<svg width="36" height="47" viewBox="0 0 36 47" fill="none" xmlns="http://www.w3.org/2000/svg">
<path d="M6.32 15.14C5.29333 15.14 4.37333 14.9733 3.56 14.64C2.74667 14.3067 2.09333 13.8133 1.6 13.16C1.12 12.5067 0.866667 11.72 0.84 10.8H4.48C4.53333 11.32 4.71333 11.72 5.02 12C5.32667 12.2667 5.72667 12.4 6.22 12.4C6.72667 12.4 7.12667 12.2867 7.42 12.06C7.71333 11.82 7.86 11.4933 7.86 11.08C7.86 10.7333 7.74 10.4467 7.5 10.22C7.27333 9.99333 6.98667 9.80667 6.64 9.66C6.30667 9.51333 5.82667 9.34667 5.2 9.16C4.29333 8.88 3.55333 8.6 2.98 8.32C2.40667 8.04 1.91333 7.62667 1.5 7.08C1.08667 6.53333 0.88 5.82 0.88 4.94C0.88 3.63333 1.35333 2.61333 2.3 1.88C3.24667 1.13333 4.48 0.76 6 0.76C7.54667 0.76 8.79333 1.13333 9.74 1.88C10.6867 2.61333 11.1933 3.64 11.26 4.96H7.56C7.53333 4.50667 7.36667 4.15333 7.06 3.9C6.75333 3.63333 6.36 3.5 5.88 3.5C5.46667 3.5 5.13333 3.61333 4.88 3.84C4.62667 4.05333 4.5 4.36667 4.5 4.78C4.5 5.23333 4.71333 5.58667 5.14 5.84C5.56667 6.09333 6.23333 6.36667 7.14 6.66C8.04667 6.96667 8.78 7.26 9.34 7.54C9.91333 7.82 10.4067 8.22667 10.82 8.76C11.2333 9.29333 11.44 9.98 11.44 10.82C11.44 11.62 11.2333 12.3467 10.82 13C10.42 13.6533 9.83333 14.1733 9.06 14.56C8.28667 14.9467 7.37333 15.14 6.32 15.14ZM16.9647 0.96V15H13.5447V0.96H16.9647ZM6.5 16.96C7.98 16.96 9.27333 17.2533 10.38 17.84C11.4867 18.4267 12.34 19.2533 12.94 20.32C13.5533 21.3733 13.86 22.5933 13.86 23.98C13.86 25.3533 13.5533 26.5733 12.94 27.64C12.34 28.7067 11.48 29.5333 10.36 30.12C9.25333 30.7067 7.96667 31 6.5 31H1.24V16.96H6.5ZM6.28 28.04C7.57333 28.04 8.58 27.6867 9.3 26.98C10.02 26.2733 10.38 25.2733 10.38 23.98C10.38 22.6867 10.02 21.68 9.3 20.96C8.58 20.24 7.57333 19.88 6.28 19.88H4.66V28.04H6.28ZM19.1913 19.7V22.54H23.7713V25.18H19.1913V28.26H24.3713V31H15.7713V16.96H24.3713V19.7H19.1913ZM20.56 32.96L16.9 47H12.76L10.52 37.76L8.2 47H4.06L0.5 32.96H4.16L6.18 43.18L8.68 32.96H12.44L14.84 43.18L16.88 32.96H20.56ZM31.0152 44.52H25.7752L24.9352 47H21.3552L26.4352 32.96H30.3952L35.4752 47H31.8552L31.0152 44.52ZM30.1352 41.88L28.3952 36.74L26.6752 41.88H30.1352Z" fill="#0F62FE"/>
</svg>
