<svg width="45" height="57" viewBox="0 0 45 57" fill="none" xmlns="http://www.w3.org/2000/svg">
<path d="M9.584 18.168C8.352 18.168 7.248 17.968 6.272 17.568C5.296 17.168 4.512 16.576 3.92 15.792C3.344 15.008 3.04 14.064 3.008 12.96H7.376C7.44 13.584 7.656 14.064 8.024 14.4C8.392 14.72 8.872 14.88 9.464 14.88C10.072 14.88 10.552 14.744 10.904 14.472C11.256 14.184 11.432 13.792 11.432 13.296C11.432 12.88 11.288 12.536 11 12.264C10.728 11.992 10.384 11.768 9.968 11.592C9.568 11.416 8.992 11.216 8.24 10.992C7.152 10.656 6.264 10.32 5.576 9.984C4.888 9.648 4.296 9.152 3.8 8.496C3.304 7.84 3.056 6.984 3.056 5.928C3.056 4.36 3.624 3.136 4.76 2.256C5.896 1.36 7.376 0.912 9.2 0.912C11.056 0.912 12.552 1.36 13.688 2.256C14.824 3.136 15.432 4.368 15.512 5.952H11.072C11.04 5.408 10.84 4.984 10.472 4.68C10.104 4.36 9.632 4.2 9.056 4.2C8.56 4.2 8.16 4.336 7.856 4.608C7.552 4.864 7.4 5.24 7.4 5.736C7.4 6.28 7.656 6.704 8.168 7.008C8.68 7.312 9.48 7.64 10.568 7.992C11.656 8.36 12.536 8.712 13.208 9.048C13.896 9.384 14.488 9.872 14.984 10.512C15.48 11.152 15.728 11.976 15.728 12.984C15.728 13.944 15.48 14.816 14.984 15.6C14.504 16.384 13.8 17.008 12.872 17.472C11.944 17.936 10.848 18.168 9.584 18.168ZM22.3576 1.152V18H18.2536V1.152H22.3576ZM9.8 20.152C11.576 20.152 13.128 20.504 14.456 21.208C15.784 21.912 16.808 22.904 17.528 24.184C18.264 25.448 18.632 26.912 18.632 28.576C18.632 30.224 18.264 31.688 17.528 32.968C16.808 34.248 15.776 35.24 14.432 35.944C13.104 36.648 11.56 37 9.8 37H3.488V20.152H9.8ZM9.536 33.448C11.088 33.448 12.296 33.024 13.16 32.176C14.024 31.328 14.456 30.128 14.456 28.576C14.456 27.024 14.024 25.816 13.16 24.952C12.296 24.088 11.088 23.656 9.536 23.656H7.592V33.448H9.536ZM25.0295 23.44V26.848H30.5255V30.016H25.0295V33.712H31.2455V37H20.9255V20.152H31.2455V23.44H25.0295ZM26.672 39.152L22.28 56H17.312L14.624 44.912L11.84 56H6.872L2.6 39.152H6.992L9.416 51.416L12.416 39.152H16.928L19.808 51.416L22.256 39.152H26.672ZM39.2182 53.024H32.9302L31.9222 56H27.6262L33.7222 39.152H38.4742L44.5702 56H40.2262L39.2182 53.024ZM38.1622 49.856L36.0742 43.688L34.0102 49.856H38.1622Z" fill="#0F62FE"/>
</svg>
