<svg width="211" height="45" viewBox="0 0 211 45" fill="none" xmlns="http://www.w3.org/2000/svg">
<path d="M9.584 26.168C8.352 26.168 7.248 25.968 6.272 25.568C5.296 25.168 4.512 24.576 3.92 23.792C3.344 23.008 3.04 22.064 3.008 20.96H7.376C7.44 21.584 7.656 22.064 8.024 22.4C8.392 22.72 8.872 22.88 9.464 22.88C10.072 22.88 10.552 22.744 10.904 22.472C11.256 22.184 11.432 21.792 11.432 21.296C11.432 20.88 11.288 20.536 11 20.264C10.728 19.992 10.384 19.768 9.968 19.592C9.568 19.416 8.992 19.216 8.24 18.992C7.152 18.656 6.264 18.32 5.576 17.984C4.888 17.648 4.296 17.152 3.8 16.496C3.304 15.84 3.056 14.984 3.056 13.928C3.056 12.36 3.624 11.136 4.76 10.256C5.896 9.36 7.376 8.912 9.2 8.912C11.056 8.912 12.552 9.36 13.688 10.256C14.824 11.136 15.432 12.368 15.512 13.952H11.072C11.04 13.408 10.84 12.984 10.472 12.68C10.104 12.36 9.632 12.2 9.056 12.2C8.56 12.2 8.16 12.336 7.856 12.608C7.552 12.864 7.4 13.24 7.4 13.736C7.4 14.28 7.656 14.704 8.168 15.008C8.68 15.312 9.48 15.64 10.568 15.992C11.656 16.36 12.536 16.712 13.208 17.048C13.896 17.384 14.488 17.872 14.984 18.512C15.48 19.152 15.728 19.976 15.728 20.984C15.728 21.944 15.48 22.816 14.984 23.6C14.504 24.384 13.8 25.008 12.872 25.472C11.944 25.936 10.848 26.168 9.584 26.168ZM27.1576 9.152V26H23.0536V9.152H27.1576ZM41.2438 9.152C43.0198 9.152 44.5718 9.504 45.8998 10.208C47.2278 10.912 48.2518 11.904 48.9718 13.184C49.7078 14.448 50.0758 15.912 50.0758 17.576C50.0758 19.224 49.7078 20.688 48.9718 21.968C48.2518 23.248 47.2198 24.24 45.8758 24.944C44.5478 25.648 43.0038 26 41.2438 26H34.9318V9.152H41.2438ZM40.9798 22.448C42.5318 22.448 43.7398 22.024 44.6038 21.176C45.4678 20.328 45.8998 19.128 45.8998 17.576C45.8998 16.024 45.4678 14.816 44.6038 13.952C43.7398 13.088 42.5318 12.656 40.9798 12.656H39.0358V22.448H40.9798ZM61.2733 12.44V15.848H66.7693V19.016H61.2733V22.712H67.4893V26H57.1693V9.152H67.4893V12.44H61.2733ZM98.1376 9.152L93.7456 26H88.7776L86.0896 14.912L83.3056 26H78.3376L74.0656 9.152H78.4576L80.8816 21.416L83.8816 9.152H88.3936L91.2736 21.416L93.7216 9.152H98.1376ZM115.484 23.024H109.196L108.188 26H103.892L109.988 9.152H114.74L120.836 26H116.492L115.484 23.024ZM114.428 19.856L112.34 13.688L110.276 19.856H114.428Z" fill="#0F62FE"/>
<path d="M5.648 40.084C5.088 40.084 4.584 39.988 4.136 39.796C3.688 39.596 3.336 39.316 3.08 38.956C2.824 38.596 2.696 38.176 2.696 37.696H4.16C4.192 38.056 4.332 38.352 4.58 38.584C4.836 38.816 5.192 38.932 5.648 38.932C6.12 38.932 6.488 38.82 6.752 38.596C7.016 38.364 7.148 38.068 7.148 37.708C7.148 37.428 7.064 37.2 6.896 37.024C6.736 36.848 6.532 36.712 6.284 36.616C6.044 36.52 5.708 36.416 5.276 36.304C4.732 36.16 4.288 36.016 3.944 35.872C3.608 35.72 3.32 35.488 3.08 35.176C2.84 34.864 2.72 34.448 2.72 33.928C2.72 33.448 2.84 33.028 3.08 32.668C3.32 32.308 3.656 32.032 4.088 31.84C4.52 31.648 5.02 31.552 5.588 31.552C6.396 31.552 7.056 31.756 7.568 32.164C8.088 32.564 8.376 33.116 8.432 33.82H6.92C6.896 33.516 6.752 33.256 6.488 33.04C6.224 32.824 5.876 32.716 5.444 32.716C5.052 32.716 4.732 32.816 4.484 33.016C4.236 33.216 4.112 33.504 4.112 33.88C4.112 34.136 4.188 34.348 4.34 34.516C4.5 34.676 4.7 34.804 4.94 34.9C5.18 34.996 5.508 35.1 5.924 35.212C6.476 35.364 6.924 35.516 7.268 35.668C7.62 35.82 7.916 36.056 8.156 36.376C8.404 36.688 8.528 37.108 8.528 37.636C8.528 38.06 8.412 38.46 8.18 38.836C7.956 39.212 7.624 39.516 7.184 39.748C6.752 39.972 6.24 40.084 5.648 40.084ZM10.8382 32.512C10.5902 32.512 10.3822 32.428 10.2142 32.26C10.0462 32.092 9.96219 31.884 9.96219 31.636C9.96219 31.388 10.0462 31.18 10.2142 31.012C10.3822 30.844 10.5902 30.76 10.8382 30.76C11.0782 30.76 11.2822 30.844 11.4502 31.012C11.6182 31.18 11.7022 31.388 11.7022 31.636C11.7022 31.884 11.6182 32.092 11.4502 32.26C11.2822 32.428 11.0782 32.512 10.8382 32.512ZM11.5102 33.388V40H10.1422V33.388H11.5102ZM15.7063 40.108C15.1863 40.108 14.7183 40.016 14.3023 39.832C13.8943 39.64 13.5703 39.384 13.3303 39.064C13.0903 38.736 12.9623 38.372 12.9463 37.972H14.3623C14.3863 38.252 14.5183 38.488 14.7583 38.68C15.0063 38.864 15.3143 38.956 15.6823 38.956C16.0663 38.956 16.3623 38.884 16.5703 38.74C16.7863 38.588 16.8943 38.396 16.8943 38.164C16.8943 37.916 16.7743 37.732 16.5343 37.612C16.3023 37.492 15.9303 37.36 15.4183 37.216C14.9223 37.08 14.5183 36.948 14.2063 36.82C13.8943 36.692 13.6223 36.496 13.3903 36.232C13.1663 35.968 13.0543 35.62 13.0543 35.188C13.0543 34.836 13.1583 34.516 13.3663 34.228C13.5743 33.932 13.8703 33.7 14.2543 33.532C14.6463 33.364 15.0943 33.28 15.5983 33.28C16.3503 33.28 16.9543 33.472 17.4103 33.856C17.8743 34.232 18.1223 34.748 18.1543 35.404H16.7863C16.7623 35.108 16.6423 34.872 16.4263 34.696C16.2103 34.52 15.9183 34.432 15.5503 34.432C15.1903 34.432 14.9143 34.5 14.7223 34.636C14.5303 34.772 14.4343 34.952 14.4343 35.176C14.4343 35.352 14.4983 35.5 14.6263 35.62C14.7543 35.74 14.9103 35.836 15.0943 35.908C15.2783 35.972 15.5503 36.056 15.9103 36.16C16.3903 36.288 16.7823 36.42 17.0863 36.556C17.3983 36.684 17.6663 36.876 17.8903 37.132C18.1143 37.388 18.2303 37.728 18.2383 38.152C18.2383 38.528 18.1343 38.864 17.9263 39.16C17.7183 39.456 17.4223 39.688 17.0383 39.856C16.6623 40.024 16.2183 40.108 15.7063 40.108ZM21.3124 34.504V38.164C21.3124 38.412 21.3684 38.592 21.4804 38.704C21.6004 38.808 21.8004 38.86 22.0804 38.86H22.9204V40H21.8404C21.2244 40 20.7524 39.856 20.4244 39.568C20.0964 39.28 19.9324 38.812 19.9324 38.164V34.504H19.1524V33.388H19.9324V31.744H21.3124V33.388H22.9204V34.504H21.3124ZM30.2413 36.532C30.2413 36.78 30.2253 37.004 30.1933 37.204H25.1413C25.1813 37.732 25.3773 38.156 25.7293 38.476C26.0813 38.796 26.5133 38.956 27.0253 38.956C27.7613 38.956 28.2813 38.648 28.5853 38.032H30.0612C29.8613 38.64 29.4973 39.14 28.9693 39.532C28.4493 39.916 27.8013 40.108 27.0253 40.108C26.3933 40.108 25.8253 39.968 25.3213 39.688C24.8253 39.4 24.4333 39 24.1453 38.488C23.8653 37.968 23.7253 37.368 23.7253 36.688C23.7253 36.008 23.8613 35.412 24.1333 34.9C24.4133 34.38 24.8013 33.98 25.2973 33.7C25.8013 33.42 26.3773 33.28 27.0253 33.28C27.6493 33.28 28.2053 33.416 28.6933 33.688C29.1813 33.96 29.5613 34.344 29.8333 34.84C30.1053 35.328 30.2413 35.892 30.2413 36.532ZM28.8133 36.1C28.8053 35.596 28.6253 35.192 28.2733 34.888C27.9213 34.584 27.4853 34.432 26.9653 34.432C26.4933 34.432 26.0893 34.584 25.7533 34.888C25.4173 35.184 25.2173 35.588 25.1533 36.1H28.8133ZM39.5915 33.28C40.1115 33.28 40.5755 33.388 40.9835 33.604C41.3995 33.82 41.7235 34.14 41.9555 34.564C42.1955 34.988 42.3155 35.5 42.3155 36.1V40H40.9595V36.304C40.9595 35.712 40.8115 35.26 40.5155 34.948C40.2195 34.628 39.8155 34.468 39.3035 34.468C38.7915 34.468 38.3835 34.628 38.0795 34.948C37.7835 35.26 37.6355 35.712 37.6355 36.304V40H36.2795V36.304C36.2795 35.712 36.1315 35.26 35.8355 34.948C35.5395 34.628 35.1355 34.468 34.6235 34.468C34.1115 34.468 33.7035 34.628 33.3995 34.948C33.1035 35.26 32.9555 35.712 32.9555 36.304V40H31.5875V33.388H32.9555V34.144C33.1795 33.872 33.4635 33.66 33.8075 33.508C34.1515 33.356 34.5195 33.28 34.9115 33.28C35.4395 33.28 35.9115 33.392 36.3275 33.616C36.7435 33.84 37.0635 34.164 37.2875 34.588C37.4875 34.188 37.7995 33.872 38.2235 33.64C38.6475 33.4 39.1035 33.28 39.5915 33.28ZM48.5414 31.66V40H47.1734V31.66H48.5414ZM53.6735 33.28C54.1935 33.28 54.6575 33.388 55.0655 33.604C55.4815 33.82 55.8055 34.14 56.0375 34.564C56.2695 34.988 56.3855 35.5 56.3855 36.1V40H55.0295V36.304C55.0295 35.712 54.8815 35.26 54.5855 34.948C54.2895 34.628 53.8855 34.468 53.3735 34.468C52.8615 34.468 52.4535 34.628 52.1495 34.948C51.8535 35.26 51.7055 35.712 51.7055 36.304V40H50.3375V33.388H51.7055V34.144C51.9295 33.872 52.2135 33.66 52.5575 33.508C52.9095 33.356 53.2815 33.28 53.6735 33.28ZM60.9025 34.504H59.6785V40H58.2985V34.504H57.5185V33.388H58.2985V32.92C58.2985 32.16 58.4985 31.608 58.8985 31.264C59.3065 30.912 59.9425 30.736 60.8065 30.736V31.876C60.3905 31.876 60.0985 31.956 59.9305 32.116C59.7625 32.268 59.6785 32.536 59.6785 32.92V33.388H60.9025V34.504ZM64.9828 40.108C64.3588 40.108 63.7948 39.968 63.2908 39.688C62.7868 39.4 62.3908 39 62.1028 38.488C61.8148 37.968 61.6708 37.368 61.6708 36.688C61.6708 36.016 61.8188 35.42 62.1148 34.9C62.4108 34.38 62.8148 33.98 63.3268 33.7C63.8388 33.42 64.4108 33.28 65.0428 33.28C65.6748 33.28 66.2468 33.42 66.7588 33.7C67.2708 33.98 67.6748 34.38 67.9708 34.9C68.2668 35.42 68.4148 36.016 68.4148 36.688C68.4148 37.36 68.2628 37.956 67.9588 38.476C67.6548 38.996 67.2388 39.4 66.7108 39.688C66.1908 39.968 65.6148 40.108 64.9828 40.108ZM64.9828 38.92C65.3348 38.92 65.6628 38.836 65.9668 38.668C66.2788 38.5 66.5308 38.248 66.7228 37.912C66.9148 37.576 67.0108 37.168 67.0108 36.688C67.0108 36.208 66.9188 35.804 66.7348 35.476C66.5508 35.14 66.3068 34.888 66.0028 34.72C65.6988 34.552 65.3708 34.468 65.0188 34.468C64.6668 34.468 64.3388 34.552 64.0348 34.72C63.7388 34.888 63.5028 35.14 63.3268 35.476C63.1508 35.804 63.0628 36.208 63.0628 36.688C63.0628 37.4 63.2428 37.952 63.6028 38.344C63.9708 38.728 64.4308 38.92 64.9828 38.92ZM71.1352 34.348C71.3352 34.012 71.5992 33.752 71.9272 33.568C72.2632 33.376 72.6592 33.28 73.1152 33.28V34.696H72.7672C72.2312 34.696 71.8232 34.832 71.5432 35.104C71.2712 35.376 71.1352 35.848 71.1352 36.52V40H69.7672V33.388H71.1352V34.348ZM82.3767 33.28C82.8967 33.28 83.3607 33.388 83.7687 33.604C84.1847 33.82 84.5087 34.14 84.7407 34.564C84.9807 34.988 85.1007 35.5 85.1007 36.1V40H83.7447V36.304C83.7447 35.712 83.5967 35.26 83.3007 34.948C83.0047 34.628 82.6007 34.468 82.0887 34.468C81.5767 34.468 81.1687 34.628 80.8647 34.948C80.5687 35.26 80.4207 35.712 80.4207 36.304V40H79.0647V36.304C79.0647 35.712 78.9167 35.26 78.6207 34.948C78.3247 34.628 77.9207 34.468 77.4087 34.468C76.8967 34.468 76.4887 34.628 76.1847 34.948C75.8887 35.26 75.7407 35.712 75.7407 36.304V40H74.3727V33.388H75.7407V34.144C75.9647 33.872 76.2487 33.66 76.5927 33.508C76.9367 33.356 77.3047 33.28 77.6967 33.28C78.2247 33.28 78.6967 33.392 79.1127 33.616C79.5287 33.84 79.8487 34.164 80.0727 34.588C80.2727 34.188 80.5847 33.872 81.0087 33.64C81.4327 33.4 81.8887 33.28 82.3767 33.28ZM86.3854 36.664C86.3854 36 86.5214 35.412 86.7934 34.9C87.0734 34.388 87.4494 33.992 87.9214 33.712C88.4014 33.424 88.9294 33.28 89.5054 33.28C90.0254 33.28 90.4774 33.384 90.8614 33.592C91.2534 33.792 91.5654 34.044 91.7974 34.348V33.388H93.1774V40H91.7974V39.016C91.5654 39.328 91.2494 39.588 90.8494 39.796C90.4494 40.004 89.9934 40.108 89.4814 40.108C88.9134 40.108 88.3934 39.964 87.9214 39.676C87.4494 39.38 87.0734 38.972 86.7934 38.452C86.5214 37.924 86.3854 37.328 86.3854 36.664ZM91.7974 36.688C91.7974 36.232 91.7014 35.836 91.5094 35.5C91.3254 35.164 91.0814 34.908 90.7774 34.732C90.4734 34.556 90.1454 34.468 89.7934 34.468C89.4414 34.468 89.1134 34.556 88.8094 34.732C88.5054 34.9 88.2574 35.152 88.0654 35.488C87.8814 35.816 87.7894 36.208 87.7894 36.664C87.7894 37.12 87.8814 37.52 88.0654 37.864C88.2574 38.208 88.5054 38.472 88.8094 38.656C89.1214 38.832 89.4494 38.92 89.7934 38.92C90.1454 38.92 90.4734 38.832 90.7774 38.656C91.0814 38.48 91.3254 38.224 91.5094 37.888C91.7014 37.544 91.7974 37.144 91.7974 36.688ZM97.3742 40.108C96.8542 40.108 96.3862 40.016 95.9702 39.832C95.5622 39.64 95.2382 39.384 94.9982 39.064C94.7582 38.736 94.6302 38.372 94.6142 37.972H96.0302C96.0542 38.252 96.1862 38.488 96.4262 38.68C96.6742 38.864 96.9822 38.956 97.3502 38.956C97.7342 38.956 98.0302 38.884 98.2382 38.74C98.4542 38.588 98.5622 38.396 98.5622 38.164C98.5622 37.916 98.4422 37.732 98.2022 37.612C97.9702 37.492 97.5982 37.36 97.0862 37.216C96.5902 37.08 96.1862 36.948 95.8742 36.82C95.5622 36.692 95.2902 36.496 95.0582 36.232C94.8342 35.968 94.7222 35.62 94.7222 35.188C94.7222 34.836 94.8262 34.516 95.0342 34.228C95.2422 33.932 95.5382 33.7 95.9222 33.532C96.3142 33.364 96.7622 33.28 97.2662 33.28C98.0182 33.28 98.6222 33.472 99.0782 33.856C99.5422 34.232 99.7902 34.748 99.8222 35.404H98.4542C98.4302 35.108 98.3102 34.872 98.0942 34.696C97.8782 34.52 97.5862 34.432 97.2182 34.432C96.8582 34.432 96.5822 34.5 96.3902 34.636C96.1982 34.772 96.1022 34.952 96.1022 35.176C96.1022 35.352 96.1662 35.5 96.2942 35.62C96.4222 35.74 96.5782 35.836 96.7622 35.908C96.9462 35.972 97.2182 36.056 97.5782 36.16C98.0582 36.288 98.4502 36.42 98.7542 36.556C99.0662 36.684 99.3342 36.876 99.5582 37.132C99.7822 37.388 99.8982 37.728 99.9062 38.152C99.9062 38.528 99.8022 38.864 99.5942 39.16C99.3862 39.456 99.0902 39.688 98.7062 39.856C98.3302 40.024 97.8862 40.108 97.3742 40.108ZM102.08 32.512C101.832 32.512 101.624 32.428 101.456 32.26C101.288 32.092 101.204 31.884 101.204 31.636C101.204 31.388 101.288 31.18 101.456 31.012C101.624 30.844 101.832 30.76 102.08 30.76C102.32 30.76 102.524 30.844 102.692 31.012C102.86 31.18 102.944 31.388 102.944 31.636C102.944 31.884 102.86 32.092 102.692 32.26C102.524 32.428 102.32 32.512 102.08 32.512ZM102.752 33.388V40H101.384V33.388H102.752ZM110.39 31.66C111.278 31.66 112.054 31.832 112.718 32.176C113.39 32.512 113.906 33 114.266 33.64C114.634 34.272 114.818 35.012 114.818 35.86C114.818 36.708 114.634 37.444 114.266 38.068C113.906 38.692 113.39 39.172 112.718 39.508C112.054 39.836 111.278 40 110.39 40H107.666V31.66H110.39ZM110.39 38.884C111.366 38.884 112.114 38.62 112.634 38.092C113.154 37.564 113.414 36.82 113.414 35.86C113.414 34.892 113.154 34.136 112.634 33.592C112.114 33.048 111.366 32.776 110.39 32.776H109.034V38.884H110.39ZM122.233 36.532C122.233 36.78 122.217 37.004 122.185 37.204H117.133C117.173 37.732 117.369 38.156 117.721 38.476C118.073 38.796 118.505 38.956 119.017 38.956C119.753 38.956 120.273 38.648 120.577 38.032H122.053C121.853 38.64 121.489 39.14 120.961 39.532C120.441 39.916 119.793 40.108 119.017 40.108C118.385 40.108 117.817 39.968 117.313 39.688C116.817 39.4 116.425 39 116.137 38.488C115.857 37.968 115.717 37.368 115.717 36.688C115.717 36.008 115.853 35.412 116.125 34.9C116.405 34.38 116.793 33.98 117.289 33.7C117.793 33.42 118.369 33.28 119.017 33.28C119.641 33.28 120.197 33.416 120.685 33.688C121.173 33.96 121.553 34.344 121.825 34.84C122.097 35.328 122.233 35.892 122.233 36.532ZM120.805 36.1C120.797 35.596 120.617 35.192 120.265 34.888C119.913 34.584 119.477 34.432 118.957 34.432C118.485 34.432 118.081 34.584 117.745 34.888C117.409 35.184 117.209 35.588 117.145 36.1H120.805ZM125.98 40.108C125.46 40.108 124.992 40.016 124.576 39.832C124.168 39.64 123.844 39.384 123.604 39.064C123.364 38.736 123.236 38.372 123.22 37.972H124.636C124.66 38.252 124.792 38.488 125.032 38.68C125.28 38.864 125.588 38.956 125.956 38.956C126.34 38.956 126.636 38.884 126.844 38.74C127.06 38.588 127.168 38.396 127.168 38.164C127.168 37.916 127.048 37.732 126.808 37.612C126.576 37.492 126.204 37.36 125.692 37.216C125.196 37.08 124.792 36.948 124.48 36.82C124.168 36.692 123.896 36.496 123.664 36.232C123.44 35.968 123.328 35.62 123.328 35.188C123.328 34.836 123.432 34.516 123.64 34.228C123.848 33.932 124.144 33.7 124.528 33.532C124.92 33.364 125.368 33.28 125.872 33.28C126.624 33.28 127.228 33.472 127.684 33.856C128.148 34.232 128.396 34.748 128.428 35.404H127.06C127.036 35.108 126.916 34.872 126.7 34.696C126.484 34.52 126.192 34.432 125.824 34.432C125.464 34.432 125.188 34.5 124.996 34.636C124.804 34.772 124.708 34.952 124.708 35.176C124.708 35.352 124.772 35.5 124.9 35.62C125.028 35.74 125.184 35.836 125.368 35.908C125.552 35.972 125.824 36.056 126.184 36.16C126.664 36.288 127.056 36.42 127.36 36.556C127.672 36.684 127.94 36.876 128.164 37.132C128.388 37.388 128.504 37.728 128.512 38.152C128.512 38.528 128.408 38.864 128.2 39.16C127.992 39.456 127.696 39.688 127.312 39.856C126.936 40.024 126.492 40.108 125.98 40.108ZM129.534 36.664C129.534 36 129.67 35.412 129.942 34.9C130.222 34.388 130.598 33.992 131.07 33.712C131.55 33.424 132.078 33.28 132.654 33.28C133.174 33.28 133.626 33.384 134.01 33.592C134.402 33.792 134.714 34.044 134.946 34.348V33.388H136.326V40H134.946V39.016C134.714 39.328 134.398 39.588 133.998 39.796C133.598 40.004 133.142 40.108 132.63 40.108C132.062 40.108 131.542 39.964 131.07 39.676C130.598 39.38 130.222 38.972 129.942 38.452C129.67 37.924 129.534 37.328 129.534 36.664ZM134.946 36.688C134.946 36.232 134.85 35.836 134.658 35.5C134.474 35.164 134.23 34.908 133.926 34.732C133.622 34.556 133.294 34.468 132.942 34.468C132.59 34.468 132.262 34.556 131.958 34.732C131.654 34.9 131.406 35.152 131.214 35.488C131.03 35.816 130.938 36.208 130.938 36.664C130.938 37.12 131.03 37.52 131.214 37.864C131.406 38.208 131.654 38.472 131.958 38.656C132.27 38.832 132.598 38.92 132.942 38.92C133.294 38.92 133.622 38.832 133.926 38.656C134.23 38.48 134.474 38.224 134.658 37.888C134.85 37.544 134.946 37.144 134.946 36.688ZM152.1 31.66L149.628 40H148.08L146.328 33.688L144.468 40L142.932 40.012L140.568 31.66H142.02L143.748 38.452L145.62 31.66H147.156L148.896 38.416L150.636 31.66H152.1ZM152.772 36.664C152.772 36 152.908 35.412 153.18 34.9C153.46 34.388 153.836 33.992 154.308 33.712C154.788 33.424 155.316 33.28 155.892 33.28C156.412 33.28 156.864 33.384 157.248 33.592C157.64 33.792 157.952 34.044 158.184 34.348V33.388H159.564V40H158.184V39.016C157.952 39.328 157.636 39.588 157.236 39.796C156.836 40.004 156.38 40.108 155.868 40.108C155.3 40.108 154.78 39.964 154.308 39.676C153.836 39.38 153.46 38.972 153.18 38.452C152.908 37.924 152.772 37.328 152.772 36.664ZM158.184 36.688C158.184 36.232 158.088 35.836 157.896 35.5C157.712 35.164 157.468 34.908 157.164 34.732C156.86 34.556 156.532 34.468 156.18 34.468C155.828 34.468 155.5 34.556 155.196 34.732C154.892 34.9 154.644 35.152 154.452 35.488C154.268 35.816 154.176 36.208 154.176 36.664C154.176 37.12 154.268 37.52 154.452 37.864C154.644 38.208 154.892 38.472 155.196 38.656C155.508 38.832 155.836 38.92 156.18 38.92C156.532 38.92 156.86 38.832 157.164 38.656C157.468 38.48 157.712 38.224 157.896 37.888C158.088 37.544 158.184 37.144 158.184 36.688ZM164.697 33.28C165.217 33.28 165.681 33.388 166.089 33.604C166.505 33.82 166.829 34.14 167.061 34.564C167.293 34.988 167.409 35.5 167.409 36.1V40H166.053V36.304C166.053 35.712 165.905 35.26 165.609 34.948C165.313 34.628 164.909 34.468 164.397 34.468C163.885 34.468 163.477 34.628 163.173 34.948C162.877 35.26 162.729 35.712 162.729 36.304V40H161.361V33.388H162.729V34.144C162.953 33.872 163.237 33.66 163.581 33.508C163.933 33.356 164.305 33.28 164.697 33.28ZM168.698 36.664C168.698 36 168.834 35.412 169.106 34.9C169.386 34.388 169.762 33.992 170.234 33.712C170.714 33.424 171.242 33.28 171.818 33.28C172.338 33.28 172.79 33.384 173.174 33.592C173.566 33.792 173.878 34.044 174.11 34.348V33.388H175.49V40H174.11V39.016C173.878 39.328 173.562 39.588 173.162 39.796C172.762 40.004 172.306 40.108 171.794 40.108C171.226 40.108 170.706 39.964 170.234 39.676C169.762 39.38 169.386 38.972 169.106 38.452C168.834 37.924 168.698 37.328 168.698 36.664ZM174.11 36.688C174.11 36.232 174.014 35.836 173.822 35.5C173.638 35.164 173.394 34.908 173.09 34.732C172.786 34.556 172.458 34.468 172.106 34.468C171.754 34.468 171.426 34.556 171.122 34.732C170.818 34.9 170.57 35.152 170.378 35.488C170.194 35.816 170.102 36.208 170.102 36.664C170.102 37.12 170.194 37.52 170.378 37.864C170.57 38.208 170.818 38.472 171.122 38.656C171.434 38.832 171.762 38.92 172.106 38.92C172.458 38.92 172.786 38.832 173.09 38.656C173.394 38.48 173.638 38.224 173.822 37.888C174.014 37.544 174.11 37.144 174.11 36.688ZM179.903 36.7L182.951 40H181.103L178.655 37.156V40H177.287V31.12H178.655V36.28L181.055 33.388H182.951L179.903 36.7ZM189.991 36.532C189.991 36.78 189.975 37.004 189.943 37.204H184.891C184.931 37.732 185.127 38.156 185.479 38.476C185.831 38.796 186.263 38.956 186.775 38.956C187.511 38.956 188.031 38.648 188.335 38.032H189.811C189.611 38.64 189.247 39.14 188.719 39.532C188.199 39.916 187.551 40.108 186.775 40.108C186.143 40.108 185.575 39.968 185.071 39.688C184.575 39.4 184.183 39 183.895 38.488C183.615 37.968 183.475 37.368 183.475 36.688C183.475 36.008 183.611 35.412 183.883 34.9C184.163 34.38 184.551 33.98 185.047 33.7C185.551 33.42 186.127 33.28 186.775 33.28C187.399 33.28 187.955 33.416 188.443 33.688C188.931 33.96 189.311 34.344 189.583 34.84C189.855 35.328 189.991 35.892 189.991 36.532ZM188.563 36.1C188.555 35.596 188.375 35.192 188.023 34.888C187.671 34.584 187.235 34.432 186.715 34.432C186.243 34.432 185.839 34.584 185.503 34.888C185.167 35.184 184.967 35.588 184.903 36.1H188.563ZM192.706 34.348C192.906 34.012 193.17 33.752 193.498 33.568C193.834 33.376 194.23 33.28 194.686 33.28V34.696H194.338C193.802 34.696 193.394 34.832 193.114 35.104C192.842 35.376 192.706 35.848 192.706 36.52V40H191.338V33.388H192.706V34.348ZM197.539 34.504V38.164C197.539 38.412 197.595 38.592 197.707 38.704C197.827 38.808 198.027 38.86 198.307 38.86H199.147V40H198.067C197.451 40 196.979 39.856 196.651 39.568C196.323 39.28 196.159 38.812 196.159 38.164V34.504H195.379V33.388H196.159V31.744H197.539V33.388H199.147V34.504H197.539ZM199.952 36.664C199.952 36 200.088 35.412 200.36 34.9C200.64 34.388 201.016 33.992 201.488 33.712C201.968 33.424 202.496 33.28 203.072 33.28C203.592 33.28 204.044 33.384 204.428 33.592C204.82 33.792 205.132 34.044 205.364 34.348V33.388H206.744V40H205.364V39.016C205.132 39.328 204.816 39.588 204.416 39.796C204.016 40.004 203.56 40.108 203.048 40.108C202.48 40.108 201.96 39.964 201.488 39.676C201.016 39.38 200.64 38.972 200.36 38.452C200.088 37.924 199.952 37.328 199.952 36.664ZM205.364 36.688C205.364 36.232 205.268 35.836 205.076 35.5C204.892 35.164 204.648 34.908 204.344 34.732C204.04 34.556 203.712 34.468 203.36 34.468C203.008 34.468 202.68 34.556 202.376 34.732C202.072 34.9 201.824 35.152 201.632 35.488C201.448 35.816 201.356 36.208 201.356 36.664C201.356 37.12 201.448 37.52 201.632 37.864C201.824 38.208 202.072 38.472 202.376 38.656C202.688 38.832 203.016 38.92 203.36 38.92C203.712 38.92 204.04 38.832 204.344 38.656C204.648 38.48 204.892 38.224 205.076 37.888C205.268 37.544 205.364 37.144 205.364 36.688Z" fill="black"/>
</svg>
